PathFileType	4	(X/Y/Z)	Apose_0-50.trc
DataRate	CameraRate	NumFrames	NumMarkers	Units	OrigDataRate	OrigDataStartFrame	OrigNumFrames
30	30	6	22	m	30	0	50
Frame#	Time	Hip			RHip			RKnee			RAnkle			RBigToe			RSmallToe			RHeel			LHip			LKnee			LAnkle			LBigToe			LSmallToe			LHeel			Neck			Head			Nose			RShoulder			RElbow			RWrist			LShoulder			LElbow			LWrist		
		X1	Y1	Z1	X2	Y2	Z2	X3	Y3	Z3	X4	Y4	Z4	X5	Y5	Z5	X6	Y6	Z6	X7	Y7	Z7	X8	Y8	Z8	X9	Y9	Z9	X10	Y10	Z10	X11	Y11	Z11	X12	Y12	Z12	X13	Y13	Z13	X14	Y14	Z14	X15	Y15	Z15	X16	Y16	Z16	X17	Y17	Z17	X18	Y18	Z18	X19	Y19	Z19	X20	Y20	Z20	X21	Y21	Z21	X22	Y22	Z22
1	0.0333333333333333	0.04869244271695666	0.9223515443777179	0.37083057617861537	0.04500839410399394	0.8824123315580801	0.4798919553219145	0.012586521812466528	0.5107917911913884	0.49632002984896423	-0.0051348316926973555	0.11383320661910241	0.5166930388974382	0.18893604661624536	0.04879016309600628	0.564376115659482	0.1495025843254101	0.024858226632137607	0.6134334706848902	-0.04541431554737957	0.04395969677417826	0.496358146117021	0.04916549651157959	0.8819495250570358	0.2643776375722334	0.02578124651107821	0.5094259771067453	0.2305484512261623	0.001334148293040559	0.12363565158786158	0.20702330010296127	0.21198085032620734	0.04895323895091143	0.185842627543283	0.17560129541446012	0.029560897004759588	0.13980776589892416	-0.038213441954944416	0.046740573407515994	0.21997433338770828	0.04543568376830955	1.5834621216981812	0.35696455852466635	0.2368211586251801	1.8218484416317577	0.26231377938719674	0.2091221489960067	1.648402264787704	0.3279683844225105	0.026511399331300863	1.493983577136388	0.5522155393688036	0.10853959500199815	1.233784593165708	0.7306261449809478	0.1785017581602605	1.040743312339192	0.8929739065075251	0.0013181275968284444	1.4836443343375492	0.1683161442808723	0.025898521083791915	1.2270214668359165	0.010834125534383513	0.08195198197519783	1.0207819198932813	-0.13433713823535248
2	0.0666666666666666	0.045619532559733805	0.9234541292558455	0.3692820035404917	0.03997920640984091	0.8834392313156939	0.4767210432584229	0.011318104353710234	0.5097565475461366	0.49765897869867065	-0.005071538656239042	0.11307123795522198	0.5166731919916021	0.18806608858352486	0.04250581270757261	0.5610723955983657	0.1481203573372758	0.027775843591615654	0.6186009010777775	-0.044109637008495774	0.042188106692869036	0.4976137633543069	0.043809775969843714	0.8834634266503735	0.2605554611249836	0.02250465057548183	0.5097773715090526	0.23024506622363522	0.0024597232903991223	0.12220762427413051	0.20730368444019115	0.2137681881466496	0.04696350756446459	0.1875763834484226	0.17123680286674717	0.03202488758836305	0.13394887559915666	-0.03915481392227703	0.048639142140948104	0.21505320674050413	0.0505372861934343	1.5855039829253135	0.35886469546572064	0.25020558171837814	1.8045579501364168	0.2794235133884556	0.21824292365785633	1.6273075145369198	0.3293956842675619	0.025738374221568855	1.4940583890869692	0.54955853722985	0.09924862559216335	1.233663488682668	0.7289238237889655	0.16577986229250735	1.0425533117151997	0.8946722675842385	0.005158138767858448	1.4830978693295964	0.1633982558379029	0.02205651384197788	1.2285025593116912	0.00944888289308108	0.07205319111630995	1.0188805337613145	-0.13891608223369503
3	0.1	0.04247773658505544	0.9245216860273162	0.3677303825282435	0.03522924288382708	0.8847178142794683	0.4737764177356205	0.009710596279964111	0.5089133045893269	0.49878980712183696	-0.005036889385962409	0.11240019850910166	0.5165293308846799	0.1879387810645028	0.03737445981271499	0.5590633151359663	0.1472551496599494	0.029374490586662222	0.6229409103405759	-0.043262832911242374	0.04098435265719068	0.498903838584127	0.0388098473707476	0.8854538946312182	0.25701655655411065	0.019169389534642037	0.5102560731681854	0.22983799473068373	0.0030774920128214416	0.12140206832779668	0.20744784323030202	0.2153394257052591	0.045571413362153076	0.1889887303649319	0.16789295967520465	0.033910327294440726	0.12932149153112685	-0.04017500190184791	0.05079123270990693	0.21002346703222757	0.054888122141281775	1.5862010091869125	0.3600679987523219	0.2631176266912525	1.7888448922738454	0.29399912910370934	0.22958368342612828	1.6099384018957188	0.3307609715365386	0.02495142472833138	1.4944469049564741	0.5469682605762242	0.0901082999304127	1.2334315734556278	0.7276942043233707	0.15408120453120866	1.0441960802096606	0.8965036261499615	0.008841157422288609	1.4828498788027475	0.15938261215564695	0.018351846078734236	1.2299081864529944	0.008008124363345512	0.06275790705296626	1.0172034566429469	-0.1430903110534275
4	0.1333333333333333	0.03946460188301289	0.925496516492471	0.3662351527341299	0.031127930577412827	0.8863119933465629	0.4712287103344889	0.0077570098672606605	0.5084229269236242	0.49956890558937794	-0.005090478276313483	0.111913963151247	0.5162786539945845	0.18890692752485527	0.03387795076754881	0.5588335675798408	0.147161064321106	0.029090065511022653	0.6259445261700712	-0.0430591430733431	0.04060161958221969	0.5002416184863865	0.03451024640590352	0.8880642819097024	0.25396023748433233	0.015863664394671198	0.5108837239987533	0.22932698264749798	0.0030774195621844085	0.12130969002568931	0.2074320495089352	0.2163940134852577	0.044888894249461436	0.19000949022108998	0.16591101922169624	0.03499122338376261	0.1264699912203868	-0.04128969519459358	0.05295427255443684	0.20522192491008423	0.05777456904676767	1.5847060235824986	0.36004104111655855	0.2731030283479565	1.7761592262081705	0.30560902417136415	0.2446051090579212	1.5994510368704844	0.3321491242920651	0.024068783144930973	1.4952224441313315	0.5445341172538091	0.08159583670335638	1.2330468672409833	0.7271470689653207	0.1443883721000423	1.045562640832032	0.8983736230538336	0.012180085999286843	1.4829967135260536	0.15674761609610807	0.015146688945995829	1.2310886695511138	0.006686203687074754	0.05496310437964905	1.0158132138189893	-0.14650596990051729
5	0.1666666666666666	0.0369072831043709	0.926295029618012	0.3648664138698167	0.02793650331169374	0.8880997462238324	0.4691643067838976	0.005752728722842378	0.5083128986898457	0.49998075809125175	-0.005297904207622423	0.11170878978108466	0.5160463206867113	0.1908211331405556	0.03180477424791686	0.5600628770509687	0.14778934757545	0.027275810191641242	0.627520562757259	-0.043303941121703896	0.04088830113743739	0.5015121503570182	0.031096199614305455	0.8910152154083131	0.25144067255173874	0.012814483474279494	0.5115786675267532	0.22876749227419826	0.0027466228002599167	0.1214984094288152	0.20734408067320806	0.21678106527783503	0.04471659112255771	0.19069920428206857	0.16498970580397193	0.035405055734621806	0.12519984886468186	-0.042437934623128504	0.0545803914069149	0.2013318461620874	0.059086283162907975	1.5813230261373104	0.35874636410194166	0.2778442348797625	1.7673187415474743	0.3152424907135567	0.26312863418984805	1.596870986847092	0.33363651859398236	0.022990357092946813	1.496254862826116	0.5423042183801479	0.07456123232551336	1.2326196901657769	0.7271967669351441	0.13720394456026597	1.0466085915521344	0.900026843143236	0.014995891928092692	1.4834310126311174	0.15544939509002112	0.012812170527770847	1.2319045118547853	0.0057342695418618585	0.04937176396467097	1.0146003001833088	-0.14900535359998401
6	0.2	0.03499822498843396	0.926815956916172	0.3636605893502832	0.02561502330159757	0.8898281394781827	0.46760900816431455	0.004017516264274669	0.5084347443038769	0.5001385948503305	-0.0056506646413368635	0.11178654129150925	0.5159265134845124	0.19322291776843406	0.030714834571746272	0.5621102058846589	0.1488286970577954	0.02491226266994059	0.6279130602245588	-0.04358786395359283	0.041414149293456014	0.5024675211192079	0.028520058684583998	0.893740020948788	0.24944067012683704	0.010260083657649277	0.5122129511577957	0.22820277735170358	0.0024434563329521816	0.12148398090859903	0.20730239805298042	0.21666333624779946	0.04484067324329195	0.1911096956660575	0.16467537481506014	0.03541657461449115	0.12497397583188485	-0.04353407764448629	0.055396648625973204	0.19880176249770093	0.05945507161795642	1.5773222844593473	0.35669260765173405	0.2775820492454885	1.7622288505809554	0.3234975618381746	0.28262604356096116	1.6001793090649685	0.33511043985403816	0.021749078295626223	1.4973615700919203	0.5403020415069854	0.06972913383127702	1.2324310285900397	0.7274997505976978	0.13228911617756567	1.0473120956591062	0.9012397376345163	0.017171104262661756	1.4839481296914874	0.15508117002561558	0.011503876323517157	1.232306512647046	0.005257169089244189	0.04607501015941572	1.0134092696747532	-0.15063494312352071
